<svg width="39" height="39" viewBox="0 0 39 39" fill="none" xmlns="http://www.w3.org/2000/svg">
<rect x="0.5" y="0.5" width="38" height="38" rx="19" fill="#F1F1F1"/>
<rect x="0.5" y="0.5" width="38" height="38" rx="19" stroke="#FFC1C1"/>
<path d="M19.4004 9C19.6391 9 19.868 9.09482 20.0368 9.2636C20.2055 9.43239 20.3004 9.6613 20.3004 9.9C20.3004 10.1387 20.2055 10.3676 20.0368 10.5364C19.868 10.7052 19.6391 10.8 19.4004 10.8C17.093 10.8 14.8801 11.7166 13.2486 13.3482C11.617 14.9797 10.7004 17.1926 10.7004 19.5C10.7004 21.8074 11.617 24.0202 13.2486 25.6518C14.8801 27.2834 17.093 28.2 19.4004 28.2C19.6391 28.2 19.868 28.2948 20.0368 28.4636C20.2055 28.6323 20.3004 28.8613 20.3004 29.1C20.3004 29.3387 20.2055 29.5676 20.0368 29.7364C19.868 29.9051 19.6391 30 19.4004 30C16.6156 30 13.9449 28.8937 11.9758 26.9246C10.0066 24.9555 8.90039 22.2847 8.90039 19.5C8.90039 16.7152 10.0066 14.0445 11.9758 12.0754C13.9449 10.1062 16.6156 9 19.4004 9Z" fill="#FF1F5B"/>
<path d="M24.9643 16.5135C24.8053 16.3429 24.7188 16.1173 24.7229 15.8841C24.727 15.651 24.8214 15.4285 24.9863 15.2636C25.1512 15.0987 25.3737 15.0043 25.6068 15.0001C25.84 14.996 26.0657 15.0826 26.2363 15.2416L29.8363 18.8415C30.0048 19.0103 30.0995 19.239 30.0995 19.4775C30.0995 19.716 30.0048 19.9448 29.8363 20.1135L26.2363 23.7135C26.1539 23.802 26.0545 23.8729 25.9441 23.9221C25.8337 23.9713 25.7145 23.9977 25.5937 23.9998C25.4729 24.002 25.3528 23.9797 25.2408 23.9345C25.1287 23.8892 25.0269 23.8218 24.9414 23.7364C24.856 23.6509 24.7886 23.5491 24.7433 23.4371C24.6981 23.325 24.6758 23.205 24.678 23.0841C24.6801 22.9633 24.7065 22.8441 24.7557 22.7337C24.8049 22.6233 24.8758 22.5239 24.9643 22.4415L27.0283 20.3775H17.2003C16.9616 20.3775 16.7327 20.2827 16.5639 20.1139C16.3951 19.9452 16.3003 19.7162 16.3003 19.4775C16.3003 19.2388 16.3951 19.0099 16.5639 18.8411C16.7327 18.6724 16.9616 18.5775 17.2003 18.5775H27.0283L24.9643 16.5135Z" fill="#FF1F5B"/>
</svg>
